<?xml version="1.0" standalone="no"?>
<!DOCTYPE svg PUBLIC "-//W3C//DTD SVG 20010904//EN"
 "http://www.w3.org/TR/2001/REC-SVG-20010904/DTD/svg10.dtd">
<svg version="1.0" xmlns="http://www.w3.org/2000/svg"
 width="1280.000000pt" height="1280.000000pt" viewBox="0 0 1280.000000 1280.000000"
 preserveAspectRatio="xMidYMid meet">
<g transform="translate(0.000000,1280.000000) scale(0.100000,-0.100000)"
fill="#000000" stroke="none">
<path d="M6300 10567 c-94 -51 -162 -113 -196 -179 -41 -79 -54 -196 -30 -283
24 -92 77 -164 162 -220 29 -20 58 -44 63 -53 4 -9 7 -143 5 -297 -4 -231 -7
-282 -19 -294 -10 -10 -55 -19 -133 -27 -466 -46 -798 -133 -1187 -309 -144
-66 -377 -192 -440 -240 -16 -12 -43 -30 -60 -39 -16 -9 -56 -36 -87 -59 -31
-23 -79 -57 -105 -76 -52 -37 -230 -192 -329 -287 -199 -189 -463 -528 -584
-749 -19 -33 -39 -67 -46 -75 -21 -25 -170 -349 -200 -435 -15 -44 -30 -84
-34 -90 -20 -29 -96 -296 -125 -440 -57 -289 -63 -334 -76 -570 -16 -282 1
-566 50 -810 5 -27 17 -88 26 -135 33 -171 136 -496 208 -655 34 -74 140 -289
156 -315 5 -8 33 -55 62 -105 227 -383 545 -737 911 -1014 75 -56 103 -83 103
-99 0 -15 -63 -85 -198 -221 -226 -228 -239 -248 -240 -371 -1 -94 24 -152 89
-209 79 -69 194 -90 299 -54 44 15 85 52 321 285 149 147 277 268 285 268 8 0
57 -19 109 -41 52 -23 181 -70 287 -105 544 -182 1126 -227 1680 -130 211 37
272 51 388 85 125 37 338 112 430 152 50 21 95 39 101 39 7 0 128 -116 270
-258 290 -289 311 -304 430 -310 90 -5 156 21 215 85 58 64 79 114 79 199 0
116 -21 147 -252 374 -109 107 -198 200 -198 205 0 17 13 28 115 105 307 228
580 515 791 830 32 47 70 103 84 125 33 48 190 331 190 341 0 4 24 59 54 123
135 294 239 689 276 1051 25 250 27 314 19 490 -27 604 -182 1164 -448 1624
-28 49 -51 91 -51 94 0 11 -193 290 -258 373 -168 217 -418 464 -631 626 -139
106 -445 303 -469 303 -4 0 -23 11 -42 24 -92 62 -502 228 -685 276 -267 72
-430 100 -740 128 -71 6 -81 10 -92 32 -16 31 -17 535 -2 579 6 17 22 34 39
41 47 20 128 108 163 179 29 60 32 74 31 156 -1 150 -56 249 -183 333 l-56 37
-135 3 c-99 2 -142 -1 -160 -11z m423 -2156 c29 -6 104 -18 167 -27 351 -49
698 -181 1045 -397 284 -177 593 -474 782 -752 231 -339 386 -714 449 -1082
42 -246 54 -460 38 -670 -25 -328 -66 -522 -174 -808 -138 -363 -336 -669
-620 -956 -280 -283 -568 -476 -925 -622 -123 -49 -301 -108 -385 -126 -281
-60 -393 -72 -650 -72 -237 -1 -317 7 -549 52 -701 136 -1343 567 -1755 1178
-31 46 -56 85 -56 88 0 3 -8 17 -19 31 -33 47 -136 254 -175 352 -21 52 -47
117 -58 143 -25 63 -52 155 -73 247 -9 41 -20 93 -25 115 -37 162 -60 384 -60
569 1 108 22 339 38 421 6 28 16 79 22 115 14 71 38 170 68 270 26 88 128 346
151 384 11 17 38 67 61 111 23 44 67 120 99 168 56 89 228 319 259 347 10 9
42 43 72 75 118 127 365 333 494 410 27 17 77 47 110 67 275 167 644 299 954
343 59 8 136 19 172 25 36 6 83 12 105 13 85 6 388 -2 438 -12z"/>
<path d="M6377 7656 c-83 -23 -168 -110 -187 -192 -6 -22 -10 -451 -10 -981 0
-1027 -2 -993 56 -1069 31 -40 105 -80 174 -93 34 -6 281 -9 660 -8 l605 2 57
28 c63 31 107 79 138 151 53 124 -12 279 -142 337 l-53 24 -459 -2 c-277 -1
-467 2 -478 8 -17 9 -18 53 -20 812 l-3 802 -22 41 c-25 48 -92 111 -137 129
-50 21 -127 25 -179 11z"/>
<path d="M3910 10394 c-278 -29 -445 -72 -657 -167 -292 -131 -525 -312 -727
-564 -78 -98 -189 -272 -219 -343 -8 -19 -28 -64 -45 -100 -62 -130 -89 -230
-148 -545 -23 -126 -20 -318 7 -470 11 -66 25 -145 30 -175 14 -76 79 -268
126 -370 65 -142 115 -225 214 -355 93 -123 135 -169 152 -162 7 3 19 24 27
48 21 69 164 358 242 492 69 119 234 367 305 457 84 108 283 328 386 426 182
175 327 292 532 430 55 37 113 77 130 88 30 20 96 58 250 143 139 77 333 163
513 229 168 62 420 135 509 149 24 4 45 11 48 16 9 13 -104 146 -207 244 -221
211 -445 343 -758 448 -82 27 -92 29 -255 57 -104 18 -380 32 -455 24z"/>
<path d="M8690 10390 c-328 -28 -628 -130 -900 -308 -59 -39 -185 -136 -210
-161 -9 -9 -42 -41 -75 -71 -80 -74 -197 -210 -192 -224 2 -6 17 -14 33 -18
348 -85 378 -94 644 -196 36 -13 103 -42 150 -64 47 -22 103 -48 125 -58 22
-10 90 -46 150 -80 61 -34 124 -69 140 -78 39 -20 251 -161 335 -223 186 -137
430 -355 565 -505 129 -143 201 -226 226 -264 14 -19 49 -69 80 -110 81 -110
161 -234 243 -378 74 -132 205 -400 225 -464 23 -71 31 -68 128 54 49 62 105
138 124 168 49 75 109 177 109 184 0 3 11 29 24 58 114 247 176 532 176 808 0
96 -25 319 -46 420 -110 508 -440 970 -887 1237 -87 53 -246 133 -262 133 -3
0 -24 9 -48 19 -71 32 -197 69 -297 86 -52 9 -117 21 -144 26 -71 14 -305 19
-416 9z"/>
</g>
</svg>
